<?xml version="1.0" encoding="UTF-8" standalone="no"?>
<!-- Created with Inkscape (http://www.inkscape.org/) -->

<svg
   width="674.6875mm"
   height="29.368752mm"
   viewBox="0 0 674.6875 29.368752"
   version="1.1"
   id="svg1"
   xml:space="preserve"
   inkscape:version="1.4.2 (f4327f4, 2025-05-13)"
   sodipodi:docname="contact-box-bg.svg"
   xmlns:inkscape="http://www.inkscape.org/namespaces/inkscape"
   xmlns:sodipodi="http://sodipodi.sourceforge.net/DTD/sodipodi-0.dtd"
   xmlns="http://www.w3.org/2000/svg"
   xmlns:svg="http://www.w3.org/2000/svg"><sodipodi:namedview
     id="namedview1"
     pagecolor="#505050"
     bordercolor="#eeeeee"
     borderopacity="1"
     inkscape:showpageshadow="0"
     inkscape:pageopacity="0"
     inkscape:pagecheckerboard="0"
     inkscape:deskcolor="#505050"
     inkscape:document-units="mm"
     inkscape:zoom="0.25449098"
     inkscape:cx="648.35303"
     inkscape:cy="381.15299"
     inkscape:window-width="1920"
     inkscape:window-height="1001"
     inkscape:window-x="2391"
     inkscape:window-y="-9"
     inkscape:window-maximized="1"
     inkscape:current-layer="layer1" /><defs
     id="defs1" /><g
     inkscape:label="Warstwa 1"
     inkscape:groupmode="layer"
     id="layer1"
     transform="translate(232.30416,-133.74688)"><g
       style="fill:none"
       id="g1"
       transform="matrix(0.26458333,0,0,0.26458333,-232.30416,133.74688)"><path
         d="m 0,3.58606 60.9167,8.20524 c 60.9163,8.2053 182.7503,24.6157 304.0163,27.4503 121.55,2.9091 242.25,-7.8323 363.8,-17.604 C 850,11.7913 971.833,2.84014 1093.1,9.32973 c 121.55,6.41497 242.25,28.34537 363.8,39.98187 121.27,11.7112 243.1,13.203 364.37,-0.0747 121.55,-13.3522 242.25,-41.39915 363.8,-47.73957 121.26,-6.34042 243.1,9.02577 304.01,16.78347 L 2550,25.9639 V 111 h -60.92 c -60.91,0 -182.75,0 -304.01,0 -121.55,0 -242.25,0 -363.8,0 -121.27,0 -243.1,0 -364.37,0 -121.55,0 -242.25,0 -363.8,0 -121.267,0 -243.1,0 -364.367,0 -121.55,0 -242.25,0 -363.8,0 -121.266,0 -243.1,0 -304.0163,0 H 0 Z"
         fill="#ffffff"
         fill-opacity="0.15"
         id="path1" /></g></g></svg>
