<?xml version="1.0" encoding="UTF-8" standalone="no"?>
<!-- Created with Inkscape (http://www.inkscape.org/) -->

<svg
   width="76.032677mm"
   height="84.929688mm"
   viewBox="0 0 76.032677 84.929688"
   version="1.1"
   id="svg1"
   xml:space="preserve"
   inkscape:version="1.4.2 (f4327f4, 2025-05-13)"
   sodipodi:docname="counter-bg.svg"
   xmlns:inkscape="http://www.inkscape.org/namespaces/inkscape"
   xmlns:sodipodi="http://sodipodi.sourceforge.net/DTD/sodipodi-0.dtd"
   xmlns="http://www.w3.org/2000/svg"
   xmlns:svg="http://www.w3.org/2000/svg"><sodipodi:namedview
     id="namedview1"
     pagecolor="#505050"
     bordercolor="#eeeeee"
     borderopacity="1"
     inkscape:showpageshadow="0"
     inkscape:pageopacity="0"
     inkscape:pagecheckerboard="0"
     inkscape:deskcolor="#505050"
     inkscape:document-units="mm"
     inkscape:zoom="0.7198092"
     inkscape:cx="144.48273"
     inkscape:cy="161.15382"
     inkscape:window-width="1920"
     inkscape:window-height="1001"
     inkscape:window-x="2391"
     inkscape:window-y="-9"
     inkscape:window-maximized="1"
     inkscape:current-layer="layer1" /><defs
     id="defs1" /><g
     inkscape:label="Warstwa 1"
     inkscape:groupmode="layer"
     id="layer1"
     transform="translate(-67.023246,-105.9664)"><g
       style="fill:none"
       id="g1"
       transform="matrix(0.26458333,0,0,0.26458333,67.023249,105.9664)"><path
         d="m 213.857,24.2914 c 12.3,16.6 17.6,35.4 33.7,54.1 16.1,18.7 43,37.2996 39.5,50.4996 -3.4,13.3 -37.3,21.2 -59.4,29.6 -22.2,8.5 -32.7,17.5 -55.6,57.8 -22.9,40.4 -58.2,112 -66.7,104.1 -8.5001,-7.9 9.9,-95.3 -11.0001,-138.3 -20.9,-42.9 -81,-41.4 -92.30004,-53 -11.3,-11.7 26.20004,-36.5996 57.80004,-46.8996 31.6,-10.3 57.2001,-6 73.5001,-20.7 16.2,-14.8 22.9,-48.6 36,-58.3 13,-9.8 32.3,4.6 44.5,21.1 z"
         fill="#ffffff"
         fill-opacity="0.1"
         id="path1" /></g></g></svg>
