<?xml version="1.0" encoding="UTF-8" standalone="no"?>
<svg
   width="180.63382mm"
   height="138.84361mm"
   viewBox="0 0 180.63382 138.84361"
   version="1.1"
   id="svg1"
   xml:space="preserve"
   inkscape:version="1.4.2 (f4327f4, 2025-05-13)"
   sodipodi:docname="fan-icon.svg"
   xmlns:inkscape="http://www.inkscape.org/namespaces/inkscape"
   xmlns:sodipodi="http://sodipodi.sourceforge.net/DTD/sodipodi-0.dtd"
   xmlns="http://www.w3.org/2000/svg"
   xmlns:svg="http://www.w3.org/2000/svg"><sodipodi:namedview
     id="namedview1"
     pagecolor="#505050"
     bordercolor="#eeeeee"
     borderopacity="1"
     inkscape:showpageshadow="0"
     inkscape:pageopacity="0"
     inkscape:pagecheckerboard="0"
     inkscape:deskcolor="#505050"
     inkscape:document-units="mm"
     inkscape:zoom="0.69753788"
     inkscape:cx="340.4833"
     inkscape:cy="261.63454"
     inkscape:window-width="1920"
     inkscape:window-height="1001"
     inkscape:window-x="-9"
     inkscape:window-y="-9"
     inkscape:window-maximized="1"
     inkscape:current-layer="layer1" /><defs
     id="defs1" /><g
     inkscape:label="Warstwa 1"
     inkscape:groupmode="layer"
     id="layer1"
     transform="translate(-14.458092,-79.009441)"><g
       id="g1"
       transform="matrix(0.26458333,0,0,0.26458333,-30.951413,44.186079)"><path
         fill="#000000"
         opacity="1"
         stroke="none"
         d="m 491.99985,596.34985 c -98.66147,2.5e-4 -196.82367,-0.19598 -294.9836,0.19324 -16.3774,0.0649 -25.39423,-11.08874 -25.38977,-25.38861 0.043,-137.99265 0.0166,-275.98529 0.0366,-413.97794 0.002,-16.08187 9.54855,-25.48542 26.06584,-25.50868 51.99712,-0.0732 103.99439,-0.0479 155.99158,-0.047 157.32492,0.003 314.64984,0.0165 471.97479,-0.005 4.68311,-6.4e-4 9.32569,0.27384 13.71009,1.91297 9.91888,3.70822 14.07818,11.53137 14.89868,21.58699 0.0541,0.66272 0.0252,1.33267 0.0252,1.99925 -10e-4,138.1593 0.005,276.31863 -0.024,414.47793 -0.002,8.59522 -2.86872,15.96796 -10.11243,21.13978 -4.09332,2.9226 -8.75537,3.64916 -13.71277,3.64599 -72.82947,-0.0469 -145.65893,-0.029 -218.4884,-0.0277 -39.83063,6.7e-4 -79.66119,-7.9e-4 -119.99185,-0.001 M 779.49426,416.37729 c -44.99609,-6.1e-4 -89.99231,-0.0613 -134.98822,0.0265 -19.151,0.0374 -33.92273,14.33578 -34.09845,33.15649 -0.21472,22.99597 -0.22931,45.99735 0.011,68.99283 0.17847,17.0752 14.86517,32.01892 31.38367,32.05206 49.99542,0.10022 99.99115,0.0474 149.98669,-0.008 5.23273,-0.006 10.08991,-1.52044 14.6673,-4.21625 12.15332,-7.15722 17.06384,-18.20312 17.14587,-31.73931 0.12927,-21.33069 0.26172,-42.66605 -0.0507,-63.99292 -0.17785,-12.14377 -5.06268,-22.03333 -15.64013,-28.95118 -8.54395,-5.58786 -17.93445,-5.35827 -28.41712,-5.31985 m -335.1962,126.25235 c 40.21189,-13.08984 73.57547,-35.64395 98.47312,-70.31122 22.32141,-31.08014 33.53033,-65.7728 34.82226,-103.7865 0.55542,-16.34241 -1.69409,-32.46817 -5.51922,-48.34256 -5.84235,-24.24621 -16.82202,-46.06195 -31.40753,-66.20462 -20.03601,-27.66978 -46.17203,-47.68812 -77.26538,-61.22975 -29.89603,-13.0202 -61.26743,-16.83225 -93.63529,-13.47968 -21.54608,2.23166 -42.10901,7.93654 -61.42126,17.61769 -31.69626,15.88923 -57.6174,38.32012 -76.84745,68.42423 -18.96031,29.68185 -27.61738,62.29498 -29.11044,97.10651 -0.34929,8.14413 1.10936,16.20196 1.89745,24.29171 1.72328,17.68943 6.27224,34.68427 13.4882,50.8096 11.247,25.1334 26.60024,47.35428 47.41696,65.81669 21.57395,19.13385 46.11331,32.48687 73.68735,40.3609 22.25235,6.35437 44.91129,8.21783 68.0426,6.13086 12.50498,-1.12824 24.58512,-3.69642 37.37863,-7.20386 M 698.50018,343.37265 c -24.97247,0.003 -49.945,-0.0283 -74.91736,0.0312 -7.14691,0.017 -13.31665,5.21347 -13.0982,11.01355 0.20721,5.5032 5.73865,10.35531 12.96039,10.32663 61.26459,-0.24341 122.53064,-0.13443 183.7962,-0.13544 1.99744,-3e-5 4.01044,0.10504 5.98938,-0.0988 5.29669,-0.5456 9.8747,-5.12821 10.24823,-10.0878 0.28467,-3.77945 -3.76239,-8.71558 -8.19739,-10.28687 -2.28131,-0.80823 -4.58221,-0.73434 -6.90155,-0.73544 -36.29321,-0.0168 -72.58642,-0.0203 -109.8797,-0.027 M 815.87561,198.42264 c -2.30713,-1.30445 -4.84064,-1.034 -7.32855,-1.03423 -60.82898,-0.006 -121.6579,-0.006 -182.48688,-0.006 -1.16656,-2e-5 -2.33551,-0.0331 -3.49921,0.0284 -6.35089,0.33542 -12.1651,5.73751 -12.07409,11.19165 0.0914,5.47506 5.4804,9.9971 12.23608,9.99901 62.82874,0.0177 125.65747,0.006 188.48621,-0.0337 6.59692,-0.004 10.48565,-2.70546 11.72772,-8.60398 1.12323,-5.33389 -2.02936,-8.71617 -7.06128,-11.54063 m -173.37537,71.98822 c -5.99969,-0.005 -11.99963,-0.0507 -17.99896,-0.006 -7.17804,0.054 -13.84424,5.28266 -14.00647,10.90473 -0.16748,5.80374 5.94159,10.27939 14.02234,10.27878 61.66229,-0.005 123.32452,-0.008 184.98682,-0.0152 1.33282,-1.5e-4 2.67291,0.0448 3.99719,-0.072 4.68359,-0.41324 7.42828,-3.15207 9.15033,-7.38254 1.67975,-4.12641 -0.2768,-7.08676 -2.75488,-9.90854 -2.88752,-3.28796 -6.74616,-3.83899 -10.9079,-3.83542 -55.16278,0.0474 -110.32562,0.034 -166.48847,0.0358 z"
         id="fanCase"
         style="fill:#3c3c3c;fill-opacity:0.15000001" /><path
         fill="#000000"
         opacity="1"
         stroke="none"
         d="m 731.99908,656.35352 c -25.65313,-10e-4 -50.80651,0.007 -75.95983,-0.009 -8.55317,-0.006 -13.07642,-4.164 -13.32117,-12.60364 -0.20758,-7.15668 0.0607,-14.32617 -0.0761,-21.48627 -0.067,-3.50305 1.466,-4.62945 4.80438,-4.62329 34.98126,0.0641 69.96283,0.0742 104.94403,-6.1e-4 3.60364,-0.008 5.08301,1.22431 5.0025,4.92731 -0.17382,7.992 0.057,15.99237 -0.0958,23.98523 -0.11121,5.81976 -3.96362,9.58624 -9.80707,9.75628 -4.99335,0.14533 -9.99389,0.0455 -15.49103,0.0543 z"
         id="fanPillarRight"
         style="fill:#3c3c3c;fill-opacity:0.15000001" /><path
         fill="#000000"
         opacity="1"
         stroke="none"
         d="m 371.35892,626.06763 c -0.005,6.32098 0.0763,12.15411 -0.0379,17.98333 -0.15521,7.91632 -4.58404,12.26441 -12.5065,12.27454 -29.99002,0.0384 -59.98013,0.0509 -89.97018,0.0215 -8.34644,-0.008 -12.15884,-3.88367 -12.18973,-12.17176 -0.0254,-6.83099 0.25586,-13.67566 -0.0958,-20.48865 -0.25479,-4.93682 1.67645,-6.15814 6.3566,-6.13446 33.48803,0.1695 66.97729,0.0934 100.46618,0.0955 7.91535,4.9e-4 7.91535,8e-4 7.9773,8.42005 z"
         id="fanPillarLeft"
         style="fill:#3c3c3c;fill-opacity:0.15000001" /><path
         fill="#000000"
         opacity="1"
         stroke="none"
         d="m 266.29526,254.30933 c 10.51846,-11.98427 22.6047,-21.48603 35.74426,-29.83275 19.11578,-12.14302 39.84085,-19.9905 62.12491,-23.40355 15.32645,-2.3474 30.82327,-2.09696 46.26935,-0.60677 24.63729,2.37689 47.20211,10.77887 68.03054,23.88779 22.9004,14.41299 41.15397,33.38451 54.96805,56.70991 11.51294,19.43992 18.89722,40.31656 21.62561,62.65601 3.63312,29.74729 0.0381,58.64029 -12.18554,86.23007 -8.86139,20.00107 -20.82135,37.91834 -36.83811,52.85379 -20.23398,18.86801 -43.4909,32.62281 -70.20105,40.45374 -19.08929,5.59662 -38.59958,7.24902 -58.23196,5.9118 -33.00949,-2.24835 -62.9285,-13.49554 -89.07498,-33.90548 -33.61948,-26.24326 -54.40039,-60.37031 -62.00144,-102.48478 -7.79191,-43.17193 1.14368,-82.81472 24.79697,-119.38131 4.32716,-6.68958 8.94345,-13.2414 14.97339,-19.08847 m 119.47802,-21.87337 c -6.56545,1.78662 -13.36428,3.02308 -19.11581,6.9442 -10.67654,7.27878 -13.78778,18.2409 -14.2438,30.3269 -0.76978,20.39938 1.3703,40.45874 7.38317,60.03424 0.58701,1.91107 1.01029,3.64041 -0.50943,5.58728 -3.94067,5.04843 -4.57071,5.2244 -10.06488,1.72202 -15.38864,-9.80991 -27.14904,-23.29254 -38.33227,-37.42685 -7.37534,-9.32159 -23.99381,-11.55713 -32.97278,-4.26962 -8.24481,6.69155 -14.87445,14.88562 -18.43173,25.05026 -7.3804,21.08908 -5.14586,41.98422 2.58108,62.38998 2.89722,7.65113 8.6901,13.38562 16.73868,16.15311 14.60266,5.02103 29.66736,2.7551 44.50546,2.10327 11.24653,-0.49408 22.32944,-3.17029 33.05869,-6.83298 4.11264,-1.40399 5.59262,2.01953 7.76022,4.04651 2.22244,2.07822 0.37445,3.89939 -0.76669,5.70859 -9.35553,14.83264 -21.70431,26.81461 -35.75201,37.08566 -9.02726,6.60028 -13.42014,16.88306 -10.18839,27.52805 4.03033,13.27557 14.91983,20.07809 26.71234,25.07724 18.09427,7.67059 36.61273,6.10345 55.23593,1.33923 20.29145,-5.19101 27.49042,-16.61777 28.2121,-34.6105 0.8367,-20.86109 -0.68491,-41.53519 -7.17206,-61.53852 -1.46426,-4.51513 1.32279,-6.49407 3.7876,-8.8154 2.72095,-2.5625 4.46469,0.32081 6.40506,1.56144 2.23291,1.42773 4.41309,2.94522 6.55234,4.51092 12.46725,9.12464 22.67337,20.42877 31.94577,32.70908 6.22952,8.25027 18.62616,11.57196 27.89599,7.18722 13.89603,-6.57306 21.21991,-18.72201 25.60865,-32.79693 5.80059,-18.60279 2.74499,-36.84555 -3.36255,-54.72589 -3.51276,-10.28391 -10.80304,-17.30307 -21.42475,-19.81733 -6.40332,-1.51571 -13.15384,-2.25137 -19.73709,-2.18701 -17.28683,0.16889 -34.46072,1.89603 -51.03918,7.16098 -4.64325,1.47461 -8.32352,0.7211 -10.98331,-3.01764 -2.5975,-3.65118 0.99362,-6.20178 2.74002,-8.67907 9.65692,-13.69815 21.21152,-25.59156 34.92981,-35.2796 9.89905,-6.99085 13.55667,-23.58063 6.41199,-33.01758 -7.26361,-9.59397 -16.81879,-16.46816 -28.40039,-20.33879 -14.96555,-5.00158 -30.00159,-4.77233 -45.96778,-0.87247 z"
         id="fan"
         style="fill:#3b4a5a;fill-opacity:1" /><path
         fill="#000000"
         opacity="1"
         stroke="none"
         d="m 408.13934,375.87198 c -6.03256,8.63293 -17.16925,11.89331 -26.73675,8.08362 -7.99646,-3.18408 -14.16562,-14.42743 -12.53461,-22.84439 1.97638,-10.19922 10.6785,-18.35294 20.75739,-18.16758 16.53469,0.3042 24.8219,15.0582 20.76565,27.5625 -0.55868,1.72229 -1.35531,3.36738 -2.25168,5.36585 z"
         id="path8"
         style="fill:#3b4a5a;fill-opacity:0.75" /></g></g></svg>
