<?xml version="1.0" encoding="UTF-8" standalone="no"?>
<!-- Created with Inkscape (http://www.inkscape.org/) -->

<svg
   width="607.40137mm"
   height="570.30481mm"
   viewBox="0 0 607.40137 570.30481"
   version="1.1"
   id="svg1"
   xml:space="preserve"
   inkscape:version="1.4.2 (f4327f4, 2025-05-13)"
   sodipodi:docname="recuperation-icon.svg"
   xmlns:inkscape="http://www.inkscape.org/namespaces/inkscape"
   xmlns:sodipodi="http://sodipodi.sourceforge.net/DTD/sodipodi-0.dtd"
   xmlns="http://www.w3.org/2000/svg"
   xmlns:svg="http://www.w3.org/2000/svg"><sodipodi:namedview
     id="namedview1"
     pagecolor="#505050"
     bordercolor="#eeeeee"
     borderopacity="1"
     inkscape:showpageshadow="0"
     inkscape:pageopacity="0"
     inkscape:pagecheckerboard="0"
     inkscape:deskcolor="#505050"
     inkscape:document-units="mm"
     inkscape:zoom="0.17438447"
     inkscape:cx="593.51615"
     inkscape:cy="1149.7583"
     inkscape:window-width="1920"
     inkscape:window-height="1001"
     inkscape:window-x="-9"
     inkscape:window-y="-9"
     inkscape:window-maximized="1"
     inkscape:current-layer="layer1" /><defs
     id="defs1" /><g
     inkscape:label="Warstwa 1"
     inkscape:groupmode="layer"
     id="layer1"
     transform="translate(198.92569,136.72117)"><g
       id="g1"
       transform="matrix(0.26458333,0,0,0.26458333,-408.51286,-249.91777)"><path
         fill="#e5e5e5"
         opacity="1"
         stroke="none"
         d="m 2914.4917,1383.6941 c -0.8123,1.719 -2.0513,3.3708 -2.3345,5.173 -0.4096,2.604 -0.1364,5.317 -0.1364,7.9835 0,325.9962 0,651.9924 0,977.9885 0,3.9099 0,7.8198 0,12.3909 4.387,0.2375 7.6228,0.5583 10.8592,0.5647 21.9997,0.045 43.9995,0 65.9992,0.052 3.3052,0.01 6.6092,0.4038 9.6065,1.2049 -34.2935,0.6035 -68.2796,0.6381 -102.2659,0.6384 -637.4392,0 -1274.8783,0 -1912.3175,0 -34.65234,-4e-4 -69.30469,-0.076 -103.95703,-0.1167 3.49969,-0.5844 6.99597,-1.6499 10.49963,-1.6745 21.99738,-0.1553 43.99646,-0.079 65.99494,-0.079 3.28235,0 6.56476,0 10.35058,0 0.474,-2.9104 0.97693,-5.0913 1.14801,-7.2981 0.17987,-2.3194 0.0432,-4.6631 0.0432,-6.9964 1.2e-4,-325.311 0.005,-650.6223 -0.0474,-975.9334 -6.7e-4,-4.2561 -0.71667,-8.5121 -1.41479,-13.9154 2.22131,-3.2967 4.67108,-5.5603 7.30859,-7.5787 118.77447,-90.8991 237.56037,-181.7833 356.35557,-272.6555 200.549,-153.40964 401.1044,-306.81113 601.6679,-460.20194 2.5945,-1.98413 5.3307,-3.78295 8.1913,-5.80285 2.7788,1.97217 5.2481,3.61169 7.5973,5.40838 58.2109,44.51941 116.4054,89.06043 174.6107,133.58741 261.1323,199.76513 522.2686,399.5245 783.3762,599.3219 3.1414,2.4037 5.9185,5.2833 8.866,7.9408 m -369.1162,348.4601 c 1.4656,-13.8863 3.6636,-27.7429 4.2256,-41.6657 0.8435,-20.9054 1.1335,-41.8738 0.5471,-62.7842 -0.5215,-18.5889 -2.1895,-37.1715 -4.0024,-55.6932 -3.4131,-34.8712 -11.2591,-68.8802 -21.3541,-102.3696 -19.0976,-63.3537 -47.9729,-121.9503 -86.2561,-175.9048 -32.7766,-46.1936 -71.1926,-87.1469 -115.3161,-122.6323 -43.3172,-34.8368 -90.5593,-63.2505 -141.624,-85.3323 -69.5184,-30.0618 -142.2566,-45.9801 -217.748,-49.3289 -39.9891,-1.7739 -79.7912,1.0779 -119.375,7.3005 -58.2667,9.1596 -114.0145,26.337 -167.2258,51.7158 -52.3387,24.9627 -100.03,56.8708 -143.4658,95.3449 -39.6568,35.1265 -73.8999,74.8791 -103.2623,118.823 -25.8102,38.6281 -46.7369,79.836 -63.0042,123.4068 -20.5007,54.9096 -32.8855,111.6273 -37.0509,170.0074 -1.5342,21.5016 -0.7335,43.1811 -0.7211,64.7792 0.016,27.3512 3.4789,54.3651 7.8682,81.3336 9.4828,58.2638 27.5215,113.7411 53.446,166.6745 36.2182,73.9514 85.6115,137.8046 147.5546,192.0564 40.0864,35.1086 84.0823,64.3479 131.783,87.9025 40.4124,19.9554 82.6289,35.1612 126.5225,45.6702 35.6762,8.5418 71.8449,14.2749 108.405,15.855 27.2165,1.1765 54.576,-0.2256 81.8455,-1.2092 28.6523,-1.033 56.8306,-5.9915 84.8052,-12.1087 64.971,-14.2075 125.9714,-38.5176 182.865,-72.8479 54.2832,-32.7554 102.3105,-73.0752 144.2441,-120.7441 31.6277,-35.9538 58.6553,-75.006 81.0603,-117.242 33.219,-62.6222 54.7994,-129.0899 65.2337,-201.0069 z"
         id="recWall"
         style="fill:#3b4a5a;fill-opacity:0.15000001" /><path
         fill="#45394a"
         opacity="1"
         stroke="none"
         d="m 2915.1167,1383.9269 c -3.5725,-2.8903 -6.3496,-5.7699 -9.491,-8.1736 -261.1076,-199.7974 -522.2439,-399.55677 -783.3762,-599.3219 -58.2053,-44.52698 -116.3998,-89.068 -174.6107,-133.58741 -2.3492,-1.79669 -4.8185,-3.43621 -7.5973,-5.40838 -2.8606,2.0199 -5.5968,3.81872 -8.1913,5.80285 -200.5635,153.39081 -401.1189,306.7923 -601.6679,460.20194 -118.7952,90.8722 -237.5811,181.7564 -356.35558,272.6555 -2.63751,2.0184 -5.08728,4.282 -7.97046,7.0143 -10.00946,7.6078 -19.4599,14.95 -29.37201,21.6046 -54.39019,36.5157 -132.45276,6.6554 -142.76837,-62.1615 -5.31555,-35.4606 5.6994,-65.3402 33.83216,-87.5048 42.3092,-33.3337 85.41107,-65.6613 128.18383,-98.4064 63.89403,-48.9148 127.78493,-97.8336 191.69563,-146.7266 58.1042,-44.45108 116.2443,-88.85544 174.3481,-133.30667 63.9106,-48.89338 127.7858,-97.83283 191.6993,-146.72229 55.7275,-42.62775 111.4937,-85.20484 167.2302,-127.82087 62.6059,-47.8684 125.1986,-95.75424 187.794,-143.63656 4.4902,-3.43485 8.9216,-6.94736 13.4372,-10.34809 35.5744,-26.79083 80.2385,-27.11871 115.6907,-0.27691 46.6584,35.32663 93.0556,70.99856 139.5293,106.56912 47.5339,36.38208 95.0029,72.84924 142.5397,109.2276 53.3475,40.82526 106.7356,81.59753 160.1136,122.3833 26.1574,19.98657 52.3315,39.95148 79.4314,60.72241 4.166,3.64643 7.2404,6.70319 10.6543,9.31696 115.7038,88.58502 231.4331,177.137 347.1928,265.6491 5.4973,4.2035 11.3064,7.9988 16.9705,11.9841 45.9568,35.1363 91.9141,70.2715 137.8691,105.4101 6.8643,5.2485 13.7998,10.4084 20.5601,15.7878 52.7473,41.9723 45.281,124.944 -14.7959,155.343 -32.7815,16.5877 -65.6882,13.9058 -96.4382,-6.862 -8.8047,-5.9464 -17.024,-12.76 -26.137,-19.4087 z"
         id="path3"
         style="fill:#3b4a5a;fill-opacity:0.30000001" /><path
         fill="#453a4b"
         opacity="1"
         stroke="none"
         d="m 879.12561,2389.7939 c 35.4707,-0.1821 70.12305,-0.1066 104.77539,-0.1062 637.4392,0.01 1274.8783,0.01 1912.3175,0 33.9863,-3e-4 67.9724,-0.035 102.8987,-0.086 43.7231,4.4639 82.8432,35.1943 88.1665,86.9402 5.6616,55.0371 -33.3809,98.6113 -81.8606,105.4807 -6.2207,0.8814 -12.5657,1.2434 -18.853,1.2439 -698.4859,0.054 -1396.9718,0.072 -2095.45773,-0.01 -37.56775,0 -66.77741,-16.025 -85.85486,-48.6275 -29.53876,-50.4797 -7.46991,-117.4658 48.94989,-138.7161 7.68414,-2.8942 16.04974,-3.9794 24.91821,-6.125 z"
         id="path4"
         style="fill:#3b4a5a;fill-opacity:0.30000001" /><path
         fill="#e5e5e5"
         opacity="1"
         stroke="none"
         d="m 2894.0603,1132.7422 c -5.6658,-3.0708 -11.4749,-6.8661 -16.9722,-11.0696 -115.7597,-88.5121 -231.489,-177.06408 -347.1928,-265.6491 -3.4139,-2.61377 -6.4883,-5.67053 -10,-9.13935 0.509,-4.34173 1.9777,-8.06365 1.9846,-11.78833 0.135,-73.45831 0.1006,-146.91687 0.1015,-220.37542 0,-3.65631 0.01,-7.31256 0.9422,-12.164 1.9231,-1.2298 2.9199,-1.2948 3.917,-1.29486 119.737,-0.008 239.4743,-0.0144 359.2114,0.0119 2.6375,6.1e-4 5.2749,0.3811 7.9124,0.58435 0.019,157.3244 0.036,314.64886 0.057,471.97331 0,19.3321 0.027,38.6643 0.039,58.9111 z"
         id="chimney"
         style="fill:#3b4a5a;fill-opacity:0.15000001" /><path
         fill="#453a4b"
         opacity="1"
         stroke="none"
         d="m 2894.8821,601.6416 c -3.5552,0.0129 -6.1926,-0.36755 -8.8301,-0.36816 -119.7371,-0.0263 -239.4744,-0.0196 -359.2114,-0.0119 -0.9971,6e-5 -1.9939,0.0651 -3.8987,0.34893 -9.2192,0.07 -17.5303,-0.22973 -25.8425,-0.26831 -47.3785,-0.21978 -79.6795,-37.02807 -83.7161,-75.43597 -5.3347,-50.76526 34.0891,-90.13565 75.4346,-92.70099 7.2878,-0.45221 14.5852,-1.073 21.8784,-1.07651 134.2668,-0.0648 268.5334,-0.0778 402.8003,-0.019 23.7234,0.0104 45.2466,6.26312 63.0022,22.9791 11.9407,11.24127 19.947,24.68002 24.029,40.52304 9.9754,38.71454 -8.4841,77.64886 -40.7033,95.31506 -12.1609,6.66785 -25.1612,10.20996 -39.0391,10.38239 -8.3276,0.10357 -16.657,0.0816 -25.9033,0.33227 z"
         id="path6"
         style="fill:#3b4a5a;fill-opacity:0.30000001" /><path
         fill="#55c0a3"
         opacity="1"
         stroke="none"
         d="m 2545.144,1733.0081 c -10.2028,71.0631 -31.7832,137.5308 -65.0022,200.153 -22.405,42.236 -49.4326,81.2882 -81.0603,117.242 -41.9336,47.6689 -89.9609,87.9887 -144.2441,120.7441 -56.8936,34.3303 -117.894,58.6404 -182.865,72.8479 -27.9746,6.1172 -56.1529,11.0757 -84.8052,12.1087 -27.2695,0.9836 -54.629,2.3857 -81.8455,1.2092 -36.5601,-1.5801 -72.7288,-7.3132 -108.405,-15.855 -43.8936,-10.509 -86.1101,-25.7148 -126.5225,-45.6702 -47.7007,-23.5546 -91.6966,-52.7939 -131.783,-87.9025 -61.9431,-54.2518 -111.3364,-118.105 -147.5546,-192.0564 -25.9245,-52.9334 -43.9632,-108.4107 -53.446,-166.6745 -4.3893,-26.9685 -7.8524,-53.9824 -7.8682,-81.3336 -0.012,-21.5981 -0.8131,-43.2776 0.7211,-64.7792 4.1654,-58.3801 16.5502,-115.0978 37.0509,-170.0074 16.2673,-43.5708 37.194,-84.7787 63.0042,-123.4068 29.3624,-43.9439 63.6055,-83.6965 103.2623,-118.823 43.4358,-38.4741 91.1271,-70.3822 143.4658,-95.3449 53.2113,-25.3788 108.9591,-42.5562 167.2258,-51.7158 39.5838,-6.2226 79.3859,-9.0744 119.375,-7.3005 75.4914,3.3488 148.2296,19.2671 217.748,49.3289 51.0647,22.0818 98.3068,50.4955 141.624,85.3323 44.1235,35.4854 82.5395,76.4387 115.3161,122.6323 38.2832,53.9545 67.1585,112.5511 86.2561,175.9048 10.095,33.4894 17.941,67.4984 21.3541,102.3696 1.8129,18.5217 3.4809,37.1043 4.0024,55.6932 0.5864,20.9104 0.2964,41.8788 -0.5471,62.7842 -0.562,13.9228 -2.76,27.7794 -4.4571,42.5196 m -182.3457,-372.7758 c -28.2812,-41.209 -61.3947,-78.0287 -100.465,-109.2621 -104.1067,-83.2243 -222.5905,-121.4441 -355.8686,-113.4223 -47.5346,2.8609 -93.6043,12.4389 -138.3572,28.5078 -87.3139,31.3507 -160.8977,82.6981 -220.2169,153.8465 -67.1041,80.4859 -106.2851,173.0398 -116.274,277.6259 -4.4254,46.3348 -3.4003,92.5724 5.0473,138.3467 21.8843,118.5827 78.0505,218.0709 169.0956,297.2026 88.2963,76.7427 191.57,117.6631 308.1804,124.531 47.4499,2.7947 94.5717,-1.3796 140.8604,-12.363 108.4214,-25.7271 199.4585,-80.6214 272.2559,-165.0004 72.8278,-84.4142 113.489,-182.7438 122.3833,-293.7051 4.3034,-53.6925 0.2414,-107.0935 -12.6971,-159.6904 -14.6389,-59.5088 -38.9924,-114.5984 -73.9441,-166.6172 z"
         id="path26"
         style="fill:#3b4a5a;fill-opacity:1" /><path
         fill="#fbd133"
         opacity="1"
         stroke="none"
         d="m 2300.2559,1475.7509 c 5.4765,23.1895 9.5097,45.7434 10.0612,68.8371 0.3155,13.1919 -3.7976,24.5797 -14.2404,32.6076 -12.9119,9.9257 -25.9825,19.8483 -39.938,28.1742 -37.7249,22.5065 -78.6712,35.3552 -122.5794,39.0146 -22.653,1.8878 -45.2112,2.2333 -67.8222,0.041 -1.5979,-0.1549 -3.2234,-0.02 -5.4561,-0.02 -0.6938,5.0277 -1.1069,9.5964 -1.9883,14.073 -1.7937,9.1084 -3.02,18.452 -6.0434,27.1557 -2.399,6.9059 -1.6905,11.5138 3.2544,16.9282 18.549,20.3102 39.1533,38.0442 62.4924,52.6286 38.5903,24.1147 80.811,38.964 124.9465,48.7593 16.8721,3.7445 33.9646,6.4932 50.9456,9.7529 10.3479,1.9864 13.2275,7.6542 8.384,17.244 -6.9646,13.7903 -16.4563,25.8067 -26.9917,37.0286 -17.1999,18.3202 -37.0791,33.4137 -57.3852,48.0472 -16.9685,12.2282 -34.2994,13.6735 -53.531,5.1242 -60.0967,-26.7154 -107.0745,-67.9384 -140.1058,-124.8371 -6.8498,-11.799 -12.8475,-24.0932 -19.2277,-36.1645 -1.5306,-2.8957 -3.0212,-5.8125 -4.8213,-9.2808 -3.2113,1.2893 -5.8461,2.505 -8.5819,3.4175 -10.0594,3.3551 -20.0765,6.8758 -30.2665,9.7831 -4.7061,1.3424 -8.2476,2.5313 -10.0907,7.9812 -12.9942,38.4212 -17.3959,77.7196 -14.046,118.1163 4.0871,49.2887 17.8285,96.0476 35.7529,141.7976 0.7291,1.861 1.6592,3.6559 2.2438,5.5589 2.7337,8.9019 -0.9969,14.2761 -10.2895,14.7436 -24.6449,1.2398 -48.4314,-3.2454 -71.4913,-11.5413 -14.0779,-5.0644 -27.7476,-11.2552 -41.7812,-16.4521 -24.3434,-9.0149 -33.5981,-27.1039 -36.0148,-52.1532 -7.5715,-78.4764 15.2309,-147.981 59.2374,-211.7906 1.8714,-2.7134 3.5924,-5.5304 5.7059,-8.7977 -6.0356,-4.5966 -11.9847,-8.7174 -17.4439,-13.4084 -4.7863,-4.1129 -9.499,-8.4937 -13.3656,-13.4425 -3.7057,-4.743 -7.7484,-5.3092 -13.1051,-4.162 -28.5556,6.1155 -55.4339,16.5724 -80.7608,31.0147 -41.9231,23.9057 -76.8485,56.038 -107.9889,92.529 -8.4326,9.8816 -16.4648,20.1057 -24.6558,30.1929 -7.5433,9.2893 -14.6153,8.9276 -21.0769,-1.3878 -11.0738,-17.6775 -18.4184,-36.9374 -23.0486,-57.188 -4.8988,-21.4248 -8.7627,-43.0106 -9.4975,-65.0945 -0.5189,-15.5996 5.3908,-27.7015 17.503,-37.2506 40.8038,-32.1704 86.3725,-53.6782 137.9996,-61.3332 32.472,-4.8146 56.4788,-5.2874 94.6532,-2.9089 0.5962,-4.3933 0.9736,-8.9402 1.865,-13.3841 2.0215,-10.078 3.5139,-20.3674 6.76,-30.0551 1.9593,-5.8474 0.5732,-9.2017 -2.9966,-13.2775 -29.2829,-33.4343 -64.8215,-58.218 -105.333,-75.9775 -39.8688,-17.4777 -81.7208,-28.0387 -124.6561,-34.5883 -3.6172,-0.5518 -7.2388,-1.1203 -10.8161,-1.8802 -7.9432,-1.687 -11.0964,-7.2531 -8.0156,-14.8397 1.616,-3.9795 3.9802,-7.6894 6.2728,-11.3544 14.5297,-23.2277 34.1901,-41.6296 55.5122,-58.3829 8.3757,-6.5811 17.1465,-12.6631 25.7966,-18.8899 15.7486,-11.3362 32.1757,-12.2648 49.9475,-4.4845 60.2124,26.3605 107.5627,67.2058 140.7462,124.0584 8.7118,14.9255 16.4463,30.4213 24.9055,46.1689 1.3572,-0.3341 3.0111,-0.4344 4.3657,-1.1233 11.0498,-5.6194 22.5396,-9.9016 34.8499,-11.734 4.9405,-0.7354 8.1003,-2.6429 9.9037,-8.0526 12.7135,-38.1371 17.1556,-77.1116 13.8946,-117.1665 -3.9299,-48.274 -17.0082,-94.1845 -34.5683,-139.0241 -0.2427,-0.6196 -0.353,-1.298 -0.642,-1.8918 -8.8985,-18.2817 -1.2472,-23.209 16.921,-22.3942 21.3796,0.9586 42.3154,4.9548 62.4558,12.2028 14.7052,5.2919 29.0811,11.503 43.5803,17.3621 20.5595,8.3081 31.0373,23.571 33.2641,45.6689 5.1374,50.9887 -0.5186,100.3676 -20.324,147.8274 -10.3002,24.6822 -23.543,47.7817 -38.5941,69.8638 -1.8534,2.7193 -3.5418,5.5509 -4.8108,7.5495 11.3253,10.6262 21.9824,20.9911 33.1558,30.7656 1.9669,1.7205 6.2805,1.8439 9.1961,1.225 26.1861,-5.5585 51.0979,-14.6568 74.7468,-27.294 43.8648,-23.4398 79.8929,-56.2821 112.3331,-93.398 9.2026,-10.5291 17.8237,-21.5724 26.562,-32.4994 8.4314,-10.5432 14.8518,-10.2415 22.1228,1.4599 10.2895,16.5596 17.1577,34.5459 22.0547,54.2026 m -424.6939,145.213 c -8.3932,20.3525 -7.008,40.174 3.6019,59.3099 16.8547,30.3987 48.8658,42.6437 82.5837,32.848 12.5813,-3.6551 22.5795,-11.1909 30.9505,-20.9151 12.4944,-14.5146 18.2492,-31.9557 16.8535,-50.627 -1.4275,-19.0972 -10.3311,-35.2423 -25.0402,-48.254 -19.1875,-16.9728 -51.3273,-19.7351 -72.1835,-10.5093 -16.8826,7.4679 -28.6981,19.963 -36.7659,38.1475 z"
         id="recFan"
         style="fill:#3b4a5a;fill-opacity:1" /><path
         fill="#f6af1f"
         opacity="1"
         stroke="none"
         d="m 1875.8694,1620.256 c 7.7604,-17.4766 19.5759,-29.9717 36.4585,-37.4396 20.8562,-9.2258 52.996,-6.4635 72.1835,10.5093 14.7091,13.0117 23.6127,29.1568 25.0402,48.254 1.3957,18.6713 -4.3591,36.1124 -16.8535,50.627 -8.371,9.7242 -18.3692,17.26 -30.9505,20.9151 -33.7179,9.7957 -65.729,-2.4493 -82.5837,-32.848 -10.6099,-19.1359 -11.9951,-38.9574 -3.2945,-60.0178 z"
         id="path33"
         style="fill:#3b4a5a;fill-opacity:0.75" /></g></g></svg>
