<?xml version="1.0" standalone="no"?>
<!DOCTYPE svg PUBLIC "-//W3C//DTD SVG 20010904//EN"
 "http://www.w3.org/TR/2001/REC-SVG-20010904/DTD/svg10.dtd">
<svg version="1.0" xmlns="http://www.w3.org/2000/svg"
 width="1049.000000pt" height="496.000000pt" viewBox="0 0 1049.000000 496.000000"
 preserveAspectRatio="xMidYMid meet">

<g transform="translate(0.000000,496.000000) scale(0.100000,-0.100000)"
fill="#fff" stroke="none">
<path d="M4940 4766 c0 -97 -2 -115 -17 -120 -9 -4 -182 -6 -384 -6 -203 1
-373 -1 -378 -4 -5 -3 -11 -16 -13 -28 -3 -13 -76 -239 -162 -503 -87 -264
-218 -667 -293 -895 -74 -228 -165 -509 -203 -625 -38 -115 -71 -220 -75 -233
-4 -13 -12 -21 -18 -19 -6 2 -41 97 -79 213 -38 115 -168 511 -289 879 -122
369 -261 793 -311 943 l-89 272 -227 0 c-125 0 -236 3 -248 6 -30 8 -49 -16
-72 -88 -12 -35 -133 -405 -271 -823 -248 -753 -433 -1319 -446 -1363 -4 -13
-11 -22 -16 -20 -10 3 -107 290 -535 1588 -125 377 -233 690 -241 697 -15 12
-496 13 -508 2 -3 -4 0 -19 6 -35 6 -16 39 -110 74 -209 198 -564 342 -975
380 -1085 23 -69 88 -255 145 -415 56 -159 117 -333 135 -385 18 -52 63 -178
98 -280 36 -102 80 -227 97 -278 l33 -92 281 2 281 3 110 330 c61 182 142 429
182 550 63 195 382 1170 435 1333 11 34 26 62 32 62 6 -1 94 -249 195 -553
101 -304 272 -815 380 -1137 l196 -585 1464 0 1465 0 97 295 c53 162 153 469
223 681 69 213 155 465 191 560 112 299 270 689 278 689 4 0 9 -6 12 -12 2 -7
113 -344 246 -748 133 -404 296 -899 363 -1100 l121 -365 260 0 260 0 72 215
c40 118 170 512 289 875 119 363 256 778 304 923 47 145 91 263 96 264 5 0
143 -404 308 -898 164 -495 335 -1007 380 -1139 l81 -240 248 -5 c137 -3 254
-2 260 2 7 4 3 25 -11 65 -11 32 -53 150 -92 263 -39 113 -84 241 -100 285
-52 146 -227 646 -310 885 -45 129 -94 271 -110 315 -47 131 -90 253 -130 370
-21 61 -68 196 -105 300 -37 105 -75 213 -84 240 l-18 50 -273 5 c-175 3 -277
1 -285 -5 -7 -5 -31 -68 -54 -140 -23 -71 -127 -389 -231 -705 -223 -680 -281
-855 -385 -1175 -43 -132 -83 -246 -89 -252 -11 -12 -61 133 -646 1881 -72
215 -132 391 -134 393 -2 2 -366 3 -809 3 -600 0 -808 3 -813 11 -4 7 -7 60
-8 118 l-1 106 -257 3 -258 2 0 -114z m167 -921 c11 -50 4 -162 -15 -235 -21
-82 -64 -162 -159 -300 -23 -33 -111 -132 -231 -256 -122 -128 -160 -174 -202
-246 -33 -56 -50 -65 -50 -28 0 41 78 187 157 293 26 35 48 62 149 182 158
188 198 243 251 347 36 72 62 183 63 273 0 42 2 47 13 35 8 -8 19 -37 24 -65z
m298 29 c16 -40 21 -144 10 -209 -12 -65 -51 -169 -98 -255 -48 -87 -142 -202
-297 -361 -131 -134 -176 -191 -213 -270 -18 -38 -36 -69 -41 -69 -17 0 5 96
39 167 53 109 111 194 228 329 174 202 225 271 274 369 47 93 63 160 63 255 0
87 11 101 35 44z m299 -5 c5 -19 11 -67 13 -108 8 -122 -36 -250 -136 -400
-75 -111 -93 -133 -294 -345 -49 -52 -96 -104 -105 -117 -9 -13 -24 -32 -33
-42 -9 -9 -29 -42 -45 -72 -28 -54 -38 -63 -48 -46 -8 13 32 119 70 186 52 91
56 96 105 155 25 30 54 69 64 85 11 17 34 45 52 63 18 18 33 37 33 42 0 5 27
40 61 77 142 159 217 315 226 470 6 98 19 117 37 52z"/>
<path d="M8346 1349 c-34 -40 -34 -83 0 -114 39 -36 60 -39 98 -16 56 35 64
94 19 136 -39 36 -84 34 -117 -6z"/>
<path d="M1323 1312 c-35 -2 -63 -7 -63 -11 0 -4 16 -61 36 -127 20 -65 39
-132 44 -149 12 -46 91 -314 170 -575 11 -36 33 -110 49 -165 49 -170 38 -156
128 -153 l77 3 93 325 c153 537 163 573 163 610 0 49 16 34 29 -27 7 -32 16
-69 20 -83 5 -14 14 -45 21 -70 15 -51 19 -66 61 -210 17 -58 35 -121 39 -140
12 -51 24 -94 55 -195 14 -49 33 -114 41 -144 8 -29 17 -58 20 -62 3 -5 39 -9
80 -9 82 0 79 -3 103 85 6 22 25 87 42 145 17 58 39 137 49 175 10 39 37 133
59 210 23 77 46 158 52 180 6 22 15 51 19 65 4 14 16 52 25 85 9 33 25 87 35
120 36 122 39 113 -36 117 -36 1 -69 1 -74 -2 -4 -3 -14 -32 -23 -65 -9 -33
-23 -87 -32 -120 -18 -67 -47 -173 -76 -282 -10 -40 -28 -106 -38 -145 -11
-40 -29 -109 -41 -153 -11 -44 -25 -93 -30 -110 -5 -16 -14 -51 -21 -78 -13
-54 -29 -62 -29 -15 0 17 -5 45 -10 62 -14 41 -90 311 -100 356 -5 19 -13 51
-18 70 -6 19 -17 60 -25 90 -9 30 -25 89 -37 130 -12 41 -28 100 -36 130 -37
137 -31 128 -89 132 -73 4 -85 0 -85 -27 0 -13 -4 -27 -10 -30 -5 -3 -10 -17
-10 -31 0 -13 -4 -32 -9 -42 -5 -9 -14 -35 -20 -57 -6 -22 -34 -119 -62 -215
-28 -96 -53 -184 -56 -195 -3 -11 -19 -65 -35 -120 -39 -130 -44 -147 -63
-227 -18 -74 -35 -89 -35 -31 0 20 -5 50 -10 67 -10 31 -65 224 -81 281 -38
142 -54 201 -95 340 -25 88 -49 175 -51 193 -3 18 -9 35 -14 38 -5 3 -9 16 -9
29 0 28 -8 31 -87 27z"/>
<path d="M4713 1312 l-43 -3 0 -495 c0 -296 -4 -494 -9 -494 -5 0 -11 6 -13
14 -2 7 -142 230 -313 494 l-310 481 -93 0 -92 1 2 -587 3 -588 65 0 65 0 0
498 c0 273 3 497 7 497 4 0 13 -10 19 -22 7 -13 58 -93 114 -178 56 -85 130
-200 165 -255 36 -55 67 -102 70 -105 3 -3 59 -88 125 -190 178 -276 153 -251
247 -248 l78 3 0 584 c0 321 -2 586 -5 589 -7 7 -28 8 -82 4z"/>
<path d="M6862 1312 l-22 -3 2 -587 3 -587 63 -3 c34 -2 62 1 62 5 0 4 1 225
1 490 0 283 4 485 10 488 5 4 9 -3 9 -15 0 -11 4 -28 10 -38 5 -9 50 -107 99
-217 49 -110 100 -225 114 -255 14 -30 36 -80 50 -110 13 -30 36 -80 50 -110
14 -30 44 -95 66 -145 38 -86 41 -90 72 -90 18 0 35 6 40 15 8 16 43 94 86
190 14 30 33 74 44 98 10 23 29 63 40 90 12 26 39 85 60 130 22 46 39 86 39
88 0 3 34 78 85 189 42 91 62 140 71 170 6 19 10 -158 12 -473 l2 -503 63 3
62 3 3 588 2 587 -84 0 c-55 0 -87 -4 -93 -12 -5 -7 -24 -47 -42 -88 -19 -41
-51 -113 -72 -158 -22 -46 -39 -85 -39 -87 0 -2 -22 -51 -50 -110 -27 -59 -50
-108 -50 -110 0 -1 -22 -49 -49 -106 -66 -142 -111 -248 -111 -265 0 -32 -29
-11 -45 34 -18 47 -76 180 -158 362 -49 110 -69 156 -82 185 -7 17 -23 53 -35
80 -13 28 -34 75 -47 105 -13 30 -36 81 -50 112 l-26 57 -71 3 c-39 2 -81 2
-94 0z"/>
<path d="M9823 1312 c-6 -4 -23 -34 -38 -67 -80 -177 -120 -266 -145 -320 -29
-62 -36 -77 -139 -305 -34 -74 -65 -142 -69 -150 -5 -8 -15 -37 -23 -63 -15
-53 -38 -60 -49 -16 -4 14 -24 64 -45 110 -21 46 -48 107 -60 134 -12 28 -66
149 -120 270 -53 121 -107 243 -120 270 -12 28 -30 69 -40 93 l-19 42 -93 0
-93 0 2 -587 3 -588 62 -3 63 -3 2 503 c2 277 6 496 9 488 3 -8 12 -33 19 -55
7 -22 32 -82 56 -134 24 -51 44 -95 44 -97 0 -1 25 -55 55 -119 30 -65 55
-119 55 -121 0 -3 18 -43 40 -90 22 -47 40 -88 40 -90 0 -2 15 -37 34 -77 18
-39 47 -102 64 -139 29 -62 34 -68 62 -68 27 0 33 6 56 58 14 31 41 90 60 130
19 41 34 75 34 77 0 2 13 32 29 67 16 35 61 135 101 223 39 88 80 178 90 200
33 72 66 149 80 185 7 19 17 39 22 45 5 5 8 -205 8 -485 l-1 -495 63 0 63 0 3
588 2 587 -64 0 c-35 0 -70 2 -78 5 -7 3 -18 1 -25 -3z"/>
<path d="M2990 720 l0 -590 313 2 312 3 3 62 3 63 -248 2 -248 3 0 195 0 195
215 5 215 5 0 60 0 60 -217 3 -218 2 0 195 0 195 233 2 232 3 3 63 3 62 -301
0 -300 0 0 -590z"/>
<path d="M4992 1248 l3 -63 170 -5 170 -5 2 -520 2 -520 63 0 63 0 3 523 2
522 163 0 c89 0 167 4 172 8 6 4 10 33 10 65 l0 57 -413 0 -413 0 3 -62z"/>
<path d="M6012 723 l3 -588 65 0 65 0 3 588 2 587 -70 0 -70 0 2 -587z"/>
<path d="M8352 982 c-10 -7 -12 -99 -10 -428 l3 -419 60 0 60 0 3 419 c2 329
0 421 -10 428 -7 4 -31 8 -53 8 -22 0 -46 -4 -53 -8z"/>
<path d="M6485 283 c-37 -7 -65 -38 -72 -76 -5 -32 -2 -40 27 -67 41 -39 78
-39 119 -1 33 31 38 55 20 94 -9 20 -60 60 -71 56 -1 -1 -12 -4 -23 -6z"/>
<path d="M10314 279 c-44 -13 -68 -43 -67 -87 1 -44 42 -82 88 -82 43 0 85 42
85 83 0 58 -53 101 -106 86z"/>
</g>
</svg>
