<?xml version="1.0" encoding="UTF-8" standalone="no"?>
<!-- Created with Inkscape (http://www.inkscape.org/) -->

<svg
   width="171.05841mm"
   height="171.06252mm"
   viewBox="0 0 171.05841 171.06252"
   version="1.1"
   id="svg1"
   xml:space="preserve"
   inkscape:version="1.4.2 (f4327f4, 2025-05-13)"
   sodipodi:docname="wod-kan-icon.svg"
   xmlns:inkscape="http://www.inkscape.org/namespaces/inkscape"
   xmlns:sodipodi="http://sodipodi.sourceforge.net/DTD/sodipodi-0.dtd"
   xmlns="http://www.w3.org/2000/svg"
   xmlns:svg="http://www.w3.org/2000/svg"><sodipodi:namedview
     id="namedview1"
     pagecolor="#505050"
     bordercolor="#eeeeee"
     borderopacity="1"
     inkscape:showpageshadow="0"
     inkscape:pageopacity="0"
     inkscape:pagecheckerboard="0"
     inkscape:deskcolor="#505050"
     inkscape:document-units="mm"
     inkscape:zoom="0.34876894"
     inkscape:cx="-180.63535"
     inkscape:cy="325.43036"
     inkscape:window-width="1920"
     inkscape:window-height="1001"
     inkscape:window-x="-9"
     inkscape:window-y="-9"
     inkscape:window-maximized="1"
     inkscape:current-layer="layer1" /><defs
     id="defs1" /><g
     inkscape:label="Warstwa 1"
     inkscape:groupmode="layer"
     id="layer1"
     transform="translate(-19.245792,-62.899996)"><g
       id="g1"
       transform="matrix(0.26458333,0,0,0.26458333,-30.962829,12.705811)"><path
         fill="#000000"
         opacity="1"
         stroke="none"
         d="m 548.77985,219.22192 c 31.00219,32.24005 60.78503,65.03925 85.05456,102.40494 9.54633,14.69775 18.25317,29.89759 24.52362,46.29196 1.92731,5.03925 4.63452,6.17554 9.6034,6.15879 48.66436,-0.16391 97.32959,-0.0993 145.99456,-0.0762 2.49292,10e-4 5.01276,0.022 7.47388,0.36496 9.34027,1.30149 14.51843,7.06803 14.7793,16.49915 0.14734,5.32913 0.0342,10.66556 0.0343,15.99869 7.3e-4,102.3298 -10e-4,204.65963 0.0105,306.98941 3e-4,3.00921 -0.0424,5.9884 -1.00965,8.89044 -2.17993,6.53943 -7.25329,10.51275 -14.15503,10.62005 -9.16424,0.14252 -18.33221,0.0334 -27.49835,0.0735 -30.99402,0.13556 -61.99322,0.70783 -92.98065,0.32166 -32.8302,-0.40924 -65.65631,-0.10712 -98.48328,-0.31879 -1.49987,-0.01 -3.00073,-0.0276 -4.49957,0.0149 -7.01099,0.19916 -7.3031,0.50043 -7.30334,7.39972 -8.6e-4,25.66577 0.008,51.33155 -0.004,76.99732 -0.005,12.12481 -6.31048,18.3844 -18.57336,18.38775 -39.16528,0.0107 -78.33063,0.007 -117.49594,-0.019 -12.23523,-0.008 -18.56354,-6.29095 -18.57138,-18.38489 -0.0168,-25.83246 -0.003,-51.66485 -0.0119,-77.49731 -0.002,-6.28577 -0.34864,-6.65949 -6.7851,-6.86792 -3.16339,-0.10242 -6.33249,-0.0344 -9.49899,-0.0346 -70.16425,-0.005 -140.3285,-0.003 -210.49274,-0.0178 -13.46436,-0.003 -19.10428,-5.64063 -19.10602,-19.11823 -0.0138,-106.82965 -0.011,-213.65927 -0.0198,-320.48892 -0.001,-13.73602 5.93495,-19.75885 19.8564,-19.77511 48.99826,-0.0573 97.99658,-0.045 146.99487,-0.0681 8.2884,-0.004 8.26099,-0.0363 11.50836,-7.67276 13.63062,-32.05353 33.36216,-60.24246 55.17356,-87.12061 24.08502,-29.68002 50.64529,-57.06814 77.72421,-83.97196 7.37909,-7.3314 16.55063,-7.30761 23.93051,-0.0242 7.94635,7.84256 15.7273,15.85268 23.82685,24.04326 M 374.5,701.77808 c 140.31171,0.004 280.62347,0.0119 420.93518,0.002 10.29285,-8e-4 9.11676,0.90142 9.12201,-9.11652 0.0469,-89.98767 0.0297,-179.97534 0.0278,-269.96304 -6e-5,-3.33274 -0.11053,-6.66697 -0.0402,-9.99781 0.0983,-4.65188 -1.52704,-6.72287 -6.73303,-6.64663 -19.99292,0.2929 -39.99274,0.11465 -59.98999,0.11889 -20.66382,0.004 -41.32807,0.0824 -61.99121,-0.0289 -4.26191,-0.023 -6.211,0.82392 -4.97333,5.72034 1.00781,3.98724 1.19318,8.23364 1.33881,12.37933 0.99017,28.18165 -4.67444,54.93006 -17.69758,80.00919 -1.74554,3.36142 -2.52227,6.72092 -2.5141,10.5022 0.0833,38.66113 0.0757,77.32257 0.0321,115.98382 -0.003,2.98004 -0.13483,6.03644 -0.79364,8.92346 -1.42304,6.23621 -5.46021,10.21711 -11.71692,11.62177 -10.95575,2.45929 -19.607,-5.06647 -19.65234,-17.24005 -0.0963,-25.82941 -0.0264,-51.65942 -0.0712,-77.48914 -0.004,-2.02978 0.51123,-4.19342 -0.74756,-6.46911 -13.45636,11.68591 -27.88574,21.18097 -44.09168,27.7127 -3.68896,1.48682 -4.9887,3.40784 -4.93524,7.37909 0.21991,16.32813 0.16754,32.66132 0.0711,48.99176 -0.0531,8.98889 -4.48901,15.16956 -11.85071,17.0492 -11.06659,2.82562 -20.24237,-4.68164 -20.37939,-16.94605 -0.14887,-13.32977 -0.002,-26.66266 -0.0439,-39.99402 -0.006,-1.75213 0.58118,-3.67962 -1.21649,-5.53802 -15.74323,2.26117 -31.78006,2.07739 -47.5698,0.0405 -1.23037,2.51898 -0.83688,4.54712 -0.84204,6.50897 -0.0343,12.99811 0.0667,25.99701 -0.0412,38.99432 -0.0743,8.95374 -4.54501,15.10413 -11.96179,16.94654 -11.12753,2.76416 -20.07348,-4.67939 -20.186,-17.09284 -0.14505,-15.99652 -0.18915,-31.99756 0.0526,-47.99164 0.0678,-4.48498 -1.29752,-6.89666 -5.56393,-8.61865 -14.94855,-6.03338 -28.38343,-14.64691 -40.71323,-25.01275 -0.92496,-0.77765 -1.57632,-2.25556 -3.58804,-1.69208 0,4.77032 -2.5e-4,9.58874 3e-5,14.40716 10e-4,22.99683 0.0721,45.99396 -0.0238,68.99036 -0.0517,12.38177 -9.72433,20.12109 -20.77264,16.8692 -7.45245,-2.19354 -11.40317,-8.73627 -11.40289,-19.01294 0.001,-38.99457 -0.006,-77.98914 0.0711,-116.98358 0.008,-3.92999 -0.74945,-7.45389 -2.56192,-10.99933 -14.63309,-28.62518 -20.33966,-58.9295 -16.70273,-90.93231 0.7898,-6.94989 0.77304,-6.96024 -6.27813,-6.96298 -39.4946,-0.0155 -78.9892,-0.0256 -118.48378,-0.04 -8.28252,-0.003 -8.44548,-0.008 -8.45243,8.17224 -0.0799,94.15308 -0.1084,188.30615 -0.13128,282.45929 -3.5e-4,1.46808 -0.24263,3.01831 1.15759,4.9856 50.00786,0 100.45692,0 151.90599,6.7e-4 M 631.49268,478.01614 c 8.77362,-23.07681 11.72497,-46.64425 6.22723,-70.99353 -5.77692,-25.58554 -17.6947,-48.37268 -31.94794,-70.04919 -25.4989,-38.77893 -57.12292,-72.37253 -89.52453,-105.30577 -3.25232,-3.30568 -4.98233,-1.42984 -7.25177,0.86371 -18.75247,18.95163 -37.14203,38.24037 -54.27527,58.68431 -21.99866,26.2496 -42.19611,53.69629 -56.19458,85.23163 -11.49085,25.88626 -16.41681,52.55862 -10.27307,80.71579 14.28918,65.48809 74.80008,109.30389 141.07708,100.16613 48.29505,-6.65863 82.27137,-33.78668 102.16285,-79.31308 M 500.53732,733.87305 c -9.15954,-0.1496 -18.32562,-0.14032 -27.47574,-0.51837 -4.32632,-0.17872 -5.83697,1.23779 -5.79422,5.67346 0.19105,19.82678 0.20609,39.65777 -0.0154,59.48394 -0.0508,4.55011 1.66419,5.66541 5.8389,5.64478 26.65967,-0.13184 53.32071,-0.164 79.98007,-0.0125 4.43549,0.0252 5.7121,-1.50922 5.67163,-5.8122 -0.18139,-19.32702 -0.0669,-38.65667 -0.0812,-57.98541 -0.005,-6.612 -0.30786,-6.9497 -7.1615,-6.90686 -16.65784,0.10413 -33.31519,0.28394 -50.96256,0.43311 z"
         id="wodkanBorder"
         style="fill:#3b4a5a;fill-opacity:0.80000001" /><path
         fill="#000000"
         opacity="1"
         stroke="none"
         d="m 729.15356,460.89221 c 3.86396,4.0896 4.29853,8.77405 4.29108,13.74729 -0.0637,42.49929 -0.0594,84.99881 -0.008,127.49813 0.0129,10.66077 0.53223,21.32612 0.33716,31.98047 -0.17286,9.43244 -4.51404,15.28046 -11.74341,17.10675 -9.83984,2.48578 -18.96484,-3.85217 -20.15454,-14.03656 -0.15399,-1.31817 -0.11145,-2.66278 -0.1117,-3.99511 -0.009,-52.99927 0.002,-105.99854 -0.0324,-158.99778 -0.005,-7.22671 2.25757,-13.10162 9.13367,-16.40622 6.62964,-3.18618 12.60645,-1.85134 18.28796,3.10303 z"
         id="wodkanRight"
         style="fill:#3b4a5a;fill-opacity:0.85000002" /><path
         fill="#000000"
         opacity="1"
         stroke="none"
         d="m 324.2431,506 c 10e-4,42.9718 0.0218,85.44354 -0.0106,127.91534 -0.009,11.79798 -7.90207,19.2392 -18.47097,17.58655 -7.66202,-1.19812 -12.90937,-6.90143 -13.11356,-14.66192 -0.1839,-6.99054 -0.0396,-13.98951 -0.0496,-20.98474 -0.0681,-47.63343 -0.1449,-95.26691 -0.20337,-142.90033 -0.0119,-9.71131 6.2717,-16.62928 15.32321,-16.95798 8.9765,-0.32596 16.32056,6.86346 16.47787,16.52554 0.1789,10.98984 0.0447,21.9848 0.047,33.47754 z"
         id="wodkanLeft"
         style="fill:#3b4a5a;fill-opacity:0.85000002" /><path
         fill="#000000"
         opacity="1"
         stroke="none"
         d="m 527.75915,496.6521 c 3.35755,13.13983 -3.96935,22.84448 -16.72604,22.08466 -37.6087,-2.24018 -64.26886,-20.5485 -79.35293,-55.1731 -4.36051,-10.00931 -6.31711,-20.63129 -6.09662,-31.63031 0.20038,-9.99322 6.62567,-16.9689 15.83215,-16.88825 8.93607,0.0783 15.64239,7.03791 15.89471,16.53049 0.46561,17.51584 7.38642,31.9577 20.98673,42.96753 9.59177,7.76483 20.66492,12.01215 33.12436,12.17157 7.26367,0.093 12.94482,2.73114 16.33764,9.93741 z"
         id="wodkanMiddle"
         style="fill:#3b4a5a;fill-opacity:1" /></g></g></svg>
